<?xml version="1.0" encoding="utf-8"?>
<!-- Generator: Adobe Illustrator 25.4.1, SVG Export Plug-In . SVG Version: 6.00 Build 0)  -->
<svg version="1.1" id="Слой_1" xmlns="http://www.w3.org/2000/svg" xmlns:xlink="http://www.w3.org/1999/xlink" x="0px" y="0px"
	 viewBox="0 0 300 40" style="enable-background:new 0 0 300 40;" xml:space="preserve">
<style type="text/css">
	.st0{fill:#FFB400;}
	.st1{fill:#FFFFFF;}
</style>
<path class="st0" d="M0,11.7h8.8l3.8,10.8L16,11.7h9v3.5h-2.6v11.5H25v3.5h-8.7v-3.5h2V14.5l-1.2,4.3L14,28.1h-2.7l-3.8-9.9
	l-1.2-3.5v12h2.1v3.5H0v-3.5h2.6V15.3H0V11.7z M41.3,28.6c-1,0.8-2,1.4-3,1.8c-1,0.4-2.1,0.6-3.1,0.6c-1.6,0-3.1-0.3-4.3-1
	c-1.2-0.7-2.2-1.6-2.8-2.7c-0.7-1.2-1-2.5-1-4c0-1.6,0.3-3,0.9-4.1c0.6-1.2,1.5-2.1,2.6-2.7c1.1-0.7,2.4-1,3.9-1
	c1.5,0,2.9,0.3,4,0.9c1.1,0.6,2,1.5,2.6,2.5s0.9,2.4,0.9,3.8c0,0.3,0,0.6,0,0.9c0,0.4-0.1,0.7-0.1,1H31c0.1,0.7,0.3,1.3,0.7,1.8
	c0.4,0.5,0.9,0.8,1.5,1.1c0.6,0.2,1.3,0.3,2,0.3c0.9,0,1.7-0.1,2.6-0.4c0.8-0.3,1.6-0.7,2.2-1.2L41.3,28.6z M38.2,22
	c0-1-0.3-1.8-0.9-2.4c-0.6-0.6-1.5-0.9-2.5-0.9c-1,0-1.8,0.3-2.5,0.9C31.5,20.2,31.1,21,31,22H38.2z M51.7,31
	c-1.1,0-2.1-0.2-2.9-0.6c-0.8-0.4-1.4-1.1-1.8-2c-0.4-0.9-0.6-2-0.6-3.3v-5.9h-2.6V16h2.6v-2.6l3.9-1.2V16H54v3.2h-3.8v5
	c0,1.1,0.2,2,0.5,2.6c0.3,0.6,0.9,0.9,1.6,0.9c0.6,0,1.3-0.2,2.1-0.6l0.8,3c-0.5,0.3-1.1,0.5-1.6,0.7C52.9,30.9,52.3,31,51.7,31z
	 M67.9,29.8c-1.5,0.8-3,1.2-4.5,1.2c-2,0-3.6-0.4-4.6-1.2c-1.1-0.8-1.6-1.9-1.6-3.4c0-3,2-4.5,6-4.5h3.3c0-1.2-0.3-2.1-0.8-2.7
	c-0.5-0.6-1.2-0.9-1.9-0.9c-0.5,0-0.9,0-1.3,0.1c-0.4,0.1-0.8,0.2-1.2,0.3L61,20.2l-3.3-0.4l0.6-3.5c0.9-0.3,1.8-0.5,2.7-0.7
	c0.9-0.2,1.9-0.2,2.9-0.2c2.1,0,3.7,0.6,4.8,1.7c1.1,1.1,1.7,2.7,1.7,4.9V27l2.6,0.8l-1.1,3.3L67.9,29.8z M63.2,24.4
	c-0.7,0-1.2,0.2-1.5,0.5c-0.3,0.3-0.5,0.8-0.5,1.4c0,1.1,0.8,1.7,2.3,1.7c1.1,0,2-0.3,3-0.8v-2.8H63.2z M74.6,30.3v-3.2h2.7v-14
	l-3-1l1-3.2l6,2v16.2h2.7v3.2H74.6z M85.7,30.3v-3.2h2.7v-14l-3-1l1-3.2l6,2v16.2H95v3.2H85.7z M112.9,31.1l-4-1.4
	c-1.2,0.8-2.6,1.2-4.2,1.2c-2.4,0-4.3-0.7-5.7-2.1c-1.3-1.4-2-3.3-2-5.8c0-2.4,0.7-4.3,2-5.7c1.3-1.4,3.2-2,5.7-2
	c0.4,0,0.8,0,1.3,0.1c0.5,0.1,0.9,0.2,1.4,0.3v-2.5l-3.2-1.1l1.1-3.4l6,2.1v15.9l2.6,0.9L112.9,31.1z M104.8,27.8
	c0.4,0,0.9-0.1,1.4-0.2c0.5-0.1,0.9-0.3,1.3-0.5v-7.9c-0.3-0.2-0.8-0.3-1.2-0.4c-0.5-0.1-1-0.2-1.4-0.2c-1.1,0-2,0.4-2.6,1.2
	c-0.7,0.8-1,1.9-1,3.3c0,1.4,0.3,2.5,1,3.4C102.8,27.3,103.7,27.8,104.8,27.8z M130,28.6c-1,0.8-2,1.4-3,1.8c-1,0.4-2.1,0.6-3.1,0.6
	c-1.6,0-3.1-0.3-4.3-1c-1.2-0.7-2.2-1.6-2.8-2.7c-0.7-1.2-1-2.5-1-4c0-1.6,0.3-3,0.9-4.1c0.6-1.2,1.5-2.1,2.6-2.7
	c1.1-0.7,2.4-1,3.9-1c1.5,0,2.9,0.3,4,0.9c1.1,0.6,2,1.5,2.6,2.5c0.6,1.1,0.9,2.4,0.9,3.8c0,0.3,0,0.6,0,0.9c0,0.4-0.1,0.7-0.1,1
	h-11c0.1,0.7,0.3,1.3,0.7,1.8c0.4,0.5,0.9,0.8,1.5,1.1c0.6,0.2,1.3,0.3,2,0.3c0.9,0,1.7-0.1,2.6-0.4c0.8-0.3,1.6-0.7,2.2-1.2
	L130,28.6z M126.8,22c0-1-0.3-1.8-0.9-2.4c-0.6-0.6-1.5-0.9-2.5-0.9c-1,0-1.8,0.3-2.5,0.9c-0.7,0.6-1.1,1.4-1.1,2.4H126.8z
	 M140.4,31c-1.1,0-2.1-0.2-2.9-0.6c-0.8-0.4-1.4-1.1-1.8-2c-0.4-0.9-0.6-2-0.6-3.3v-5.9h-2.6V16h2.6v-2.6l3.9-1.2V16h3.8v3.2h-3.8v5
	c0,1.1,0.2,2,0.5,2.6c0.3,0.6,0.9,0.9,1.6,0.9c0.6,0,1.3-0.2,2.1-0.6l0.8,3c-0.5,0.3-1.1,0.5-1.6,0.7C141.5,30.9,140.9,31,140.4,31z
	 M159.2,28.6c-1,0.8-2,1.4-3,1.8c-1,0.4-2.1,0.6-3.1,0.6c-1.6,0-3.1-0.3-4.3-1c-1.2-0.7-2.2-1.6-2.8-2.7c-0.7-1.2-1-2.5-1-4
	c0-1.6,0.3-3,0.9-4.1c0.6-1.2,1.5-2.1,2.6-2.7c1.1-0.7,2.4-1,3.9-1c1.5,0,2.9,0.3,4,0.9c1.1,0.6,2,1.5,2.6,2.5s0.9,2.4,0.9,3.8
	c0,0.3,0,0.6,0,0.9c0,0.4-0.1,0.7-0.1,1h-11c0.1,0.7,0.3,1.3,0.7,1.8c0.4,0.5,0.9,0.8,1.5,1.1c0.6,0.2,1.3,0.3,2,0.3
	c0.9,0,1.7-0.1,2.6-0.4c0.8-0.3,1.6-0.7,2.2-1.2L159.2,28.6z M156,22c0-1-0.3-1.8-0.9-2.4c-0.6-0.6-1.5-0.9-2.5-0.9
	c-1,0-1.8,0.3-2.5,0.9c-0.7,0.6-1.1,1.4-1.1,2.4H156z M171.7,18.7c-0.3-0.1-0.7-0.2-1-0.2c-0.3,0-0.6-0.1-0.9-0.1
	c-1.2,0-2.2,0.4-2.8,1.2s-1,2.1-1,3.7c0,1.4,0.3,2.5,1,3.3c0.7,0.8,1.6,1.2,2.6,1.2c0.7,0,1.5-0.1,2.2-0.4c0.8-0.3,1.5-0.7,2.2-1.2
	l1.6,2.4c-0.7,0.5-1.3,0.9-1.9,1.3c-0.6,0.4-1.3,0.7-1.9,0.9c-0.7,0.2-1.4,0.3-2.2,0.3c-1.6,0-2.9-0.3-4.1-0.9
	c-1.1-0.6-2-1.4-2.7-2.6c-0.6-1.1-0.9-2.5-0.9-4.2c0-1.7,0.3-3.2,0.9-4.4c0.6-1.2,1.5-2.1,2.6-2.7c1.2-0.6,2.6-0.9,4.3-0.9
	c0.8,0,1.6,0.1,2.5,0.2c0.8,0.2,1.6,0.4,2.4,0.7l0.9,4.3l-3.4,0.7L171.7,18.7z M185.6,31c-1.1,0-2.1-0.2-2.9-0.6
	c-0.8-0.4-1.4-1.1-1.8-2c-0.4-0.9-0.6-2-0.6-3.3v-5.9h-2.6V16h2.6v-2.6l3.9-1.2V16h3.8v3.2h-3.8v5c0,1.1,0.2,2,0.5,2.6
	c0.3,0.6,0.9,0.9,1.6,0.9c0.6,0,1.3-0.2,2.1-0.6l0.8,3c-0.5,0.3-1.1,0.5-1.6,0.7C186.8,30.9,186.2,31,185.6,31z M198.1,15.4
	c1.6,0,3,0.3,4.2,0.9c1.1,0.6,2,1.5,2.6,2.7c0.6,1.2,0.9,2.6,0.9,4.2c0,2.4-0.7,4.3-2,5.7c-1.3,1.4-3.2,2.1-5.7,2.1
	c-1.6,0-3-0.3-4.1-0.9c-1.1-0.6-2-1.5-2.6-2.7s-0.9-2.6-0.9-4.2c0-1.6,0.3-3,0.9-4.2s1.4-2.1,2.6-2.7
	C195.2,15.7,196.5,15.4,198.1,15.4z M198.2,18.6c-1.2,0-2.1,0.4-2.7,1.2c-0.6,0.8-0.9,1.9-0.9,3.4c0,1.5,0.3,2.6,0.9,3.4
	c0.6,0.8,1.5,1.2,2.7,1.2c1.2,0,2.1-0.4,2.8-1.2c0.6-0.8,0.9-1.9,0.9-3.4c0-1.5-0.3-2.6-0.9-3.4C200.3,19,199.4,18.6,198.2,18.6z
	 M213.5,17.3c0.9-0.6,1.8-1.1,2.6-1.4c0.8-0.3,1.6-0.4,2.4-0.4c0.8,0,1.7,0.2,2.6,0.5l0.5,4.1l-3.3,0.7l-0.3-1.7
	c-0.7,0.1-1.4,0.2-1.9,0.4c-0.6,0.2-1,0.4-1.4,0.7l0,6.9h3.1v3.2H208v-3.2h2.7v-7.2l-3-1l1-3.2L213.5,17.3z M229.8,19
	c0.8,0,1.5-0.2,2-0.6c0.5-0.4,0.8-0.9,0.8-1.6c0-0.7-0.3-1.3-0.9-1.7s-1.4-0.6-2.3-0.6c-0.8,0-1.6,0.1-2.4,0.4
	c-0.8,0.3-1.4,0.7-1.9,1.2l-2.5-2.4c0.9-0.9,1.9-1.6,3.1-2.1c1.2-0.4,2.4-0.7,3.7-0.7c2.2,0,3.9,0.5,5.1,1.5c1.2,1,1.8,2.3,1.8,3.8
	c0,0.6-0.1,1.2-0.4,1.8s-0.7,1.1-1.2,1.5c-0.5,0.4-1.1,0.7-1.7,0.9c1.3,0.3,2.3,0.9,3.1,1.6c0.8,0.8,1.1,1.8,1.1,3s-0.3,2.2-0.9,3.1
	c-0.6,0.9-1.4,1.6-2.5,2.1c-1.1,0.5-2.4,0.7-3.9,0.7c-1.2,0-2.2-0.1-3-0.3c-0.9-0.2-1.7-0.6-2.4-1c-0.7-0.4-1.4-0.9-2.1-1.5l2.3-3
	c0.8,0.7,1.6,1.3,2.4,1.6c0.8,0.4,1.7,0.5,2.7,0.5c1,0,1.8-0.2,2.4-0.7c0.6-0.5,0.9-1,0.9-1.8c0-0.7-0.3-1.3-0.9-1.8
	c-0.6-0.5-1.4-0.7-2.5-0.7h-2.2V19H229.8z M248.1,11c1.1,0,2.2,0.2,3.2,0.5c1,0.3,1.9,0.8,2.6,1.6c0.8,0.7,1.3,1.8,1.8,3.1
	c0.4,1.3,0.6,2.9,0.6,4.9c0,2-0.2,3.6-0.6,4.9c-0.4,1.3-1,2.3-1.8,3c-0.8,0.7-1.6,1.3-2.6,1.6c-1,0.3-2.1,0.5-3.2,0.5
	c-1.1,0-2.2-0.2-3.2-0.5c-1-0.3-1.9-0.8-2.6-1.6c-0.7-0.7-1.3-1.8-1.8-3c-0.4-1.3-0.6-2.9-0.6-4.9c0-2,0.2-3.6,0.6-4.9
	c0.4-1.3,1-2.3,1.8-3.1c0.7-0.7,1.6-1.3,2.6-1.6C245.9,11.2,247,11,248.1,11z M248.1,14.7c-0.5,0-1,0.1-1.5,0.2
	c-0.5,0.1-0.9,0.4-1.3,0.8c-0.4,0.4-0.7,1.1-0.9,1.9c-0.2,0.8-0.3,2-0.3,3.4c0,1.4,0.1,2.5,0.3,3.3c0.2,0.8,0.5,1.5,0.9,1.9
	c0.4,0.4,0.8,0.7,1.3,0.9c0.5,0.1,1,0.2,1.5,0.2c0.5,0,1-0.1,1.5-0.2c0.5-0.1,0.9-0.4,1.3-0.9c0.4-0.4,0.7-1.1,0.9-1.9
	c0.2-0.8,0.3-1.9,0.3-3.3c0-1.4-0.1-2.5-0.3-3.4c-0.2-0.8-0.5-1.5-0.9-1.9c-0.4-0.4-0.8-0.7-1.3-0.8
	C249.1,14.8,248.6,14.7,248.1,14.7z"/>
<path class="st1" d="M260.6,25.6c0.7,0,1.3,0.3,1.9,0.8s0.8,1.2,0.8,1.9c0,0.7-0.3,1.3-0.8,1.9c-0.5,0.5-1.2,0.8-1.9,0.8
	c-0.8,0-1.4-0.3-1.9-0.8c-0.5-0.5-0.8-1.2-0.8-1.9c0-0.7,0.3-1.4,0.8-1.9C259.2,25.8,259.9,25.6,260.6,25.6z M271.7,17.3
	c0.9-0.6,1.8-1.1,2.6-1.4c0.8-0.3,1.6-0.4,2.4-0.4c0.8,0,1.7,0.2,2.6,0.5l0.5,4.1l-3.3,0.7l-0.3-1.7c-0.7,0.1-1.4,0.2-1.9,0.4
	c-0.6,0.2-1,0.4-1.4,0.7l0,6.9h3.1v3.2h-9.7v-3.2h2.7v-7.2l-3-1l1-3.2L271.7,17.3z M294.6,29.6c-0.7,0.4-1.5,0.7-2.3,1
	c-0.8,0.2-1.6,0.4-2.4,0.4c-2.2,0-3.9-0.5-4.9-1.5c-1-1-1.5-2.5-1.5-4.6v-5.7H281V16h6.4v8.4c0,1.1,0.2,1.8,0.6,2.3
	c0.4,0.5,1.1,0.7,2,0.7c0.4,0,0.9-0.1,1.5-0.2c0.6-0.1,1.2-0.3,1.7-0.5v-7.5h-2.4V16h6.4v10.6l2.7,0.9l-1.1,3.5L294.6,29.6z"/>
</svg>
